# xmcd
#
# Track frame offsets:
#	150
#	18518
#	32193
#	50817
#	67965
#	81169
#
# Disc length: 1617 seconds
#
# Revision: 1
# Processed by: cddbd v1.5.2PL0 Copyright (c) Steve Scherf et al.
# Submitted via: EasyCDDAExtractor 6.2.0.3
#
DISCID=4b064f06
DTITLE=Ann Klein and Band - CD1:  the hope street sessions
DYEAR=2006
DGENRE=Blues
TTITLE0=Truth and The Bluff 
TTITLE1=No Money Back Guarantee
TTITLE2=My Old Shoes
TTITLE3=Little White Lies
TTITLE4=You Shine
TTITLE5=Don`t Let Me Hit The Ground
EXTD=
EXTT0=
EXTT1=
EXTT2=
EXTT3=
EXTT4=
EXTT5=
PLAYORDER=
